<svg width="45" height="45" viewBox="0 0 45 45" fill="none" xmlns="http://www.w3.org/2000/svg">
<path d="M13.5 36C11.025 36 9.0225 38.025 9.0225 40.5C9.0225 42.975 11.025 45 13.5 45C15.975 45 18 42.975 18 40.5C18 38.025 15.975 36 13.5 36ZM0 0V4.5H4.5L12.6 21.5775L9.5625 27.09C9.2025 27.72 9 28.4625 9 29.25C9 31.725 11.025 33.75 13.5 33.75H40.5V29.25H14.445C14.13 29.25 13.8825 29.0025 13.8825 28.6875L13.95 28.4175L15.975 24.75H32.7375C34.425 24.75 35.91 23.8275 36.675 22.4325L44.73 7.83C44.91 7.515 45 7.1325 45 6.75C45 5.5125 43.9875 4.5 42.75 4.5H9.4725L7.3575 0H0ZM36 36C33.525 36 31.5225 38.025 31.5225 40.5C31.5225 42.975 33.525 45 36 45C38.475 45 40.5 42.975 40.5 40.5C40.5 38.025 38.475 36 36 36Z" fill="#FFFDFA"/>
</svg>
