<?xml version="1.0" encoding="UTF-8" standalone="no"?>
<svg
   width="45"
   height="45"
   viewBox="0 0 45 45"
   fill="none"
   version="1.1"
   id="svg4"
   sodipodi:docname="Vector-1.svg"
   inkscape:version="1.2.2 (b0a8486541, 2022-12-01)"
   xmlns:inkscape="http://www.inkscape.org/namespaces/inkscape"
   xmlns:sodipodi="http://sodipodi.sourceforge.net/DTD/sodipodi-0.dtd"
   xmlns="http://www.w3.org/2000/svg"
   xmlns:svg="http://www.w3.org/2000/svg">
  <defs
     id="defs8" />
  <sodipodi:namedview
     id="namedview6"
     pagecolor="#ffffff"
     bordercolor="#000000"
     borderopacity="0.25"
     inkscape:showpageshadow="2"
     inkscape:pageopacity="0.0"
     inkscape:pagecheckerboard="0"
     inkscape:deskcolor="#d1d1d1"
     showgrid="false"
     inkscape:zoom="18.422222"
     inkscape:cx="22.472859"
     inkscape:cy="22.472859"
     inkscape:window-width="1920"
     inkscape:window-height="1009"
     inkscape:window-x="-8"
     inkscape:window-y="-8"
     inkscape:window-maximized="1"
     inkscape:current-layer="svg4" />
  <path
     d="M22.5 0C10.08 0 0 10.08 0 22.5C0 34.92 10.08 45 22.5 45C34.92 45 45 34.92 45 22.5C45 10.08 34.92 0 22.5 0ZM22.5 6.75C26.235 6.75 29.25 9.765 29.25 13.5C29.25 17.235 26.235 20.25 22.5 20.25C18.765 20.25 15.75 17.235 15.75 13.5C15.75 9.765 18.765 6.75 22.5 6.75ZM22.5 38.7C16.875 38.7 11.9025 35.82 9 31.455C9.0675 26.9775 18 24.525 22.5 24.525C26.9775 24.525 35.9325 26.9775 36 31.455C33.0975 35.82 28.125 38.7 22.5 38.7Z"
     fill="#FFFDFA"
     id="path2"
     style="fill:#ffffff" />
</svg>
